<svg xmlns="http://www.w3.org/2000/svg" xmlns:xlink="http://www.w3.org/1999/xlink" width="1194.328" height="256.304" viewBox="0 0 1194.328 256.304"><defs><linearGradient id="linear-gradient" x1="0.499" y1="-0.185" x2="0.499" y2="1.244" gradientUnits="objectBoundingBox"><stop offset="0" stop-color="#e63327"></stop><stop offset="1" stop-color="#8c2312"></stop></linearGradient><linearGradient id="linear-gradient-2" y1="0.5" x2="1" y2="0.5" gradientUnits="objectBoundingBox"><stop offset="0" stop-color="#a3daf7"></stop><stop offset="0.5" stop-color="#35a8e0"></stop><stop offset="0.7" stop-color="#2a8ab8"></stop><stop offset="0.9" stop-color="#22749a"></stop><stop offset="1" stop-color="#1f6c8f"></stop></linearGradient><linearGradient id="linear-gradient-3" y1="0.5" x2="1.116" y2="0.5" gradientUnits="objectBoundingBox"><stop offset="0" stop-color="#a3daf7"></stop><stop offset="0.5" stop-color="#35a8e0"></stop><stop offset="0.6" stop-color="#2c8fbf"></stop><stop offset="0.7" stop-color="#217197"></stop><stop offset="0.8" stop-color="#195b7a"></stop><stop offset="0.9" stop-color="#144e68"></stop><stop offset="1" stop-color="#134a62"></stop></linearGradient><linearGradient id="linear-gradient-4" y1="0.499" x2="1.2" y2="0.499" xlink:href="#linear-gradient-3"></linearGradient><linearGradient id="linear-gradient-5" x1="0.5" y1="0.75" x2="0.5" y2="-0.49" gradientUnits="objectBoundingBox"><stop offset="0" stop-color="#a4dbf8"></stop><stop offset="0.5" stop-color="#35a8e0"></stop><stop offset="0.7" stop-color="#2a8ab8"></stop><stop offset="1" stop-color="#134a62"></stop></linearGradient><linearGradient id="linear-gradient-6" x1="0.495" y1="2.186" x2="0.495" y2="-0.682" gradientUnits="objectBoundingBox"><stop offset="0.3" stop-color="#134b62" stop-opacity="0"></stop><stop offset="0.6" stop-color="#134a62" stop-opacity="0.4"></stop><stop offset="1" stop-color="#134a62"></stop></linearGradient><linearGradient id="linear-gradient-7" x1="0.001" y1="0.5" x2="1.023" y2="0.5" gradientUnits="objectBoundingBox"><stop offset="0" stop-color="#134a62"></stop><stop offset="0.3" stop-color="#2a8ab8"></stop><stop offset="0.4" stop-color="#35a8e0"></stop><stop offset="0.8" stop-color="#a4dbf8"></stop></linearGradient><linearGradient id="linear-gradient-8" x1="0.499" y1="1.001" x2="0.499" y2="-0.154" xlink:href="#linear-gradient-6"></linearGradient><linearGradient id="linear-gradient-9" x1="0.506" y1="1.226" x2="0.506" y2="-0.595" xlink:href="#linear-gradient-6"></linearGradient><linearGradient id="linear-gradient-10" x1="0.5" y1="1.198" x2="0.5" y2="-0.816" xlink:href="#linear-gradient-6"></linearGradient><linearGradient id="linear-gradient-11" x1="0.497" y1="1.075" x2="0.497" y2="-0.037" xlink:href="#linear-gradient-5"></linearGradient><linearGradient id="linear-gradient-12" x1="0.499" y1="1.152" x2="0.499" y2="-0.009" gradientUnits="objectBoundingBox"><stop offset="0" stop-color="#134b62"></stop><stop offset="0.5" stop-color="#35a8e0"></stop><stop offset="0.8" stop-color="#77c6ee"></stop><stop offset="1" stop-color="#a4dbf8"></stop></linearGradient><linearGradient id="linear-gradient-13" x1="0.499" y1="1" x2="0.499" gradientUnits="objectBoundingBox"><stop offset="0" stop-color="#a4dbf8"></stop><stop offset="0.2" stop-color="#7cc8ee"></stop><stop offset="0.5" stop-color="#34a6dd"></stop><stop offset="0.7" stop-color="#2784b0"></stop><stop offset="1" stop-color="#134a62"></stop></linearGradient><linearGradient id="linear-gradient-15" x1="365.068" y1="-106.879" x2="365.068" y2="-108.702" xlink:href="#linear-gradient-6"></linearGradient><linearGradient id="linear-gradient-16" x1="395.829" y1="-118.102" x2="395.829" y2="-120.118" xlink:href="#linear-gradient-6"></linearGradient><linearGradient id="linear-gradient-17" x1="90.5" y1="-49.317" x2="90.5" y2="-50.45" xlink:href="#linear-gradient-5"></linearGradient><linearGradient id="linear-gradient-19" x1="-0.928" y1="0.501" x2="1.134" y2="0.501" gradientUnits="objectBoundingBox"><stop offset="0" stop-color="#8c2312"></stop><stop offset="0.5" stop-color="#e63327"></stop><stop offset="0.6" stop-color="#e94c3b"></stop><stop offset="0.9" stop-color="#f08369"></stop><stop offset="1" stop-color="#f3997b"></stop></linearGradient><linearGradient id="linear-gradient-20" x1="0.497" y1="1.041" x2="0.497" y2="-0.053" gradientUnits="objectBoundingBox"><stop offset="0" stop-color="#f3997b"></stop><stop offset="0.1" stop-color="#f08369"></stop><stop offset="0.4" stop-color="#e94c3b"></stop><stop offset="0.5" stop-color="#e63327"></stop><stop offset="1" stop-color="#8c2312"></stop></linearGradient><linearGradient id="linear-gradient-21" x1="0.5" y1="1.029" x2="0.5" y2="-0.073" xlink:href="#linear-gradient-19"></linearGradient><linearGradient id="linear-gradient-23" x1="110.338" y1="-49.345" x2="110.338" y2="-50.439" xlink:href="#linear-gradient-20"></linearGradient><linearGradient id="linear-gradient-25" x1="0" y1="0.5" x2="1" y2="0.5" xlink:href="#linear-gradient-20"></linearGradient><linearGradient id="linear-gradient-26" x1="0.001" y1="0.501" x2="1.014" y2="0.501" xlink:href="#linear-gradient-19"></linearGradient><linearGradient id="linear-gradient-27" x1="-0.001" y1="0.499" x2="1.064" y2="0.499" xlink:href="#linear-gradient-20"></linearGradient><linearGradient id="linear-gradient-28" x1="0.499" y1="0.963" x2="0.499" y2="0.122" xlink:href="#linear-gradient-19"></linearGradient><linearGradient id="linear-gradient-29" x1="0.145" y1="0.5" x2="1.034" y2="0.5" xlink:href="#linear-gradient-19"></linearGradient><linearGradient id="linear-gradient-30" x1="0.5" y1="-0.086" x2="0.5" y2="1.123" gradientUnits="objectBoundingBox"><stop offset="0" stop-color="#8c2312"></stop><stop offset="1" stop-color="#e63327"></stop></linearGradient></defs><g id="_29143_-_Swim_Run_Jersey__REVERSED" data-name="29143 - Swim Run Jersey _REVERSED" transform="translate(-152.601 -103.5)"><g id="Group_541" data-name="Group 541"><path id="Path_3865" data-name="Path 3865" d="M473.5,347.8a16.336,16.336,0,0,1-1.5,4.4,15.939,15.939,0,0,1-2.7,3.7,11.509,11.509,0,0,1-4.1,2.6,16.8,16.8,0,0,1-6.2,1.3,15.891,15.891,0,0,1-5.9-1,15.117,15.117,0,0,1-4.5-2.9,13.988,13.988,0,0,1-3.1-4.4,23.8,23.8,0,0,1-1.8-5.7H454a6.473,6.473,0,0,0,1.6,3.2,3.9,3.9,0,0,0,3.3,1.3,3.475,3.475,0,0,0,2.4-.6,4.306,4.306,0,0,0,1.5-1.5,6.561,6.561,0,0,0,.8-2.1,9.864,9.864,0,0,0,.3-2.4V303.5h10.2v39.6a26.263,26.263,0,0,1-.5,4.9Z" fill="#fff"></path><path id="Path_3866" data-name="Path 3866" d="M558.5,358.6V303.4h29.7V313H568.7v13.5h18.7v9.6H568.7v13.1h19.5v9.6H558.5Z" fill="#fff"></path><path id="Path_3867" data-name="Path 3867" d="M697.2,358.6l-14.6-21.1h-.1v21.1H672.3V303.4h16.9a33.534,33.534,0,0,1,7.1.7,13.342,13.342,0,0,1,6.3,3.1,16.067,16.067,0,0,1,4.8,5.9,17.081,17.081,0,0,1,1.7,7.4,19.632,19.632,0,0,1-1.4,7.2,15.5,15.5,0,0,1-8.2,8.9,25.619,25.619,0,0,1-4.9,1.6l15,20.4Zm1.6-37.3a8.742,8.742,0,0,0-.8-3.7,6.964,6.964,0,0,0-2.2-2.6,8.144,8.144,0,0,0-3.1-1.5,15.011,15.011,0,0,0-3.7-.5h-6.6v16.9H689a15.829,15.829,0,0,0,3.8-.5,8.316,8.316,0,0,0,3.1-1.6,7.545,7.545,0,0,0,2.1-2.6,8.873,8.873,0,0,0,.8-3.8Z" fill="#fff"></path><path id="Path_3868" data-name="Path 3868" d="M822.2,342.1a18.82,18.82,0,0,1-1.3,7.2,17.628,17.628,0,0,1-3.7,5.6,15.384,15.384,0,0,1-5.7,3.6,20.936,20.936,0,0,1-7.2,1.3,17.315,17.315,0,0,1-6.9-1.3,17.091,17.091,0,0,1-5.6-3.5,17.809,17.809,0,0,1-3.9-5.4,16.984,16.984,0,0,1-1.6-6.8H797a9.625,9.625,0,0,0,2.1,5.3,6.427,6.427,0,0,0,5.2,2.1,4.916,4.916,0,0,0,2.9-.5,7.267,7.267,0,0,0,4.1-3.6,6.387,6.387,0,0,0,.6-2.8,6.53,6.53,0,0,0-1-3.8,8.508,8.508,0,0,0-2.5-2.5,15.427,15.427,0,0,0-3.4-1.7c-1.3-.4-2.5-.9-3.7-1.3-.8-.3-1.7-.7-2.5-1a27.156,27.156,0,0,1-2.5-1.1,14.19,14.19,0,0,1-6.2-5.6,16.3,16.3,0,0,1-1.9-8.2,12.082,12.082,0,0,1,1.3-6.3,15.819,15.819,0,0,1,3.4-5,15.416,15.416,0,0,1,5.2-3.3,16.571,16.571,0,0,1,17.7,3.3,17.959,17.959,0,0,1,3.5,5,16.149,16.149,0,0,1,1.5,6.2H810.3a6.6,6.6,0,0,0-1.8-4.5,5.72,5.72,0,0,0-4.4-1.7,4.925,4.925,0,0,0-4,1.6,5.2,5.2,0,0,0-1.6,4,4.7,4.7,0,0,0,.9,3.2,8.827,8.827,0,0,0,2.2,2.1,15.114,15.114,0,0,0,2.9,1.3c1.1.3,2.1.7,3.2,1a33.789,33.789,0,0,1,5.8,2.5,17.731,17.731,0,0,1,4.6,3.4,13.519,13.519,0,0,1,3,4.7,17.465,17.465,0,0,1,1.1,6.4Z" fill="#fff"></path><path id="Path_3869" data-name="Path 3869" d="M903.4,358.6V303.4h29.7V313H913.6v13.5h18.7v9.6H913.6v13.1h19.5v9.6H903.4Z" fill="#fff"></path><path id="Path_3870" data-name="Path 3870" d="M1040.5,338.2v20.4h-10.2V338.2l-18.1-34.9h11.2l12,25.4,12.1-25.4h11.3l-18.2,34.9Z" fill="#fff"></path></g><g id="Group_544" data-name="Group 544"><path id="Path_3871" data-name="Path 3871" d="M910.2,142.8c8.3,0,13.5,7.1,11.9,16v.8h41.5l3.9-16.8Z" fill="url(#linear-gradient)"></path><circle id="Ellipse_13" data-name="Ellipse 13" cx="31.5" cy="31.5" r="31.5" transform="translate(310.9 159)" fill="url(#linear-gradient-2)"></circle><path id="Path_3872" data-name="Path 3872" d="M315.6,103.6h0c-23,0-45.7,17.6-50.7,39.2H368.7a19.58,19.58,0,0,0,19.1-15.2h0a19.607,19.607,0,0,0-19.1-24H315.6Z" fill="url(#linear-gradient-3)"></path><path id="Path_3873" data-name="Path 3873" d="M232.8,214.3H177.4A25.046,25.046,0,0,0,153,233.7h0a16.224,16.224,0,0,0,15.8,19.8h68.8a2.252,2.252,0,0,0,2.2-1.7l8.7-37.5,3.3-14.5C249.8,207.8,241.4,214.3,232.8,214.3Z" fill="url(#linear-gradient-4)"></path><path id="Path_3874" data-name="Path 3874" d="M264.9,142.9l-13.1,56.7v.2l-3.3,14.5-9.1,39.2h0c23,0,45.7-17.6,50.7-39.2l13.1-56.7c1.9-8.1,10.4-14.7,19-14.7Z" fill="url(#linear-gradient-5)"></path><path id="Path_3875" data-name="Path 3875" d="M407.3,119.8l-9.4,41.7,10.3-44.6a13.971,13.971,0,0,0-.9,2.9Z" fill="url(#linear-gradient-6)"></path><path id="Path_3876" data-name="Path 3876" d="M548.7,214.4H492.9l3.7-15.9,16.2-70.2a20.935,20.935,0,0,0-20.6-24.6h0a20.958,20.958,0,0,0-20.4,16.2l-16,68.9c-.1.4-.2.9-.3,1.3h0l-5.6,24.4H427.2v.7l-6.6,28.4h0l-2.3,10h89.6c21.2,0,42.1-14.5,47.8-32.6h0a.6.6,0,0,1,.1-.4l.5-2.2.9-3.9h-8.5Z" fill="url(#linear-gradient-7)"></path><path id="Path_3877" data-name="Path 3877" d="M455.9,188.7l16-68.9a20.874,20.874,0,0,1,20.4-16.2h0a20.9,20.9,0,0,1,20.4,25.6l-15.9,68.9a20.874,20.874,0,0,1-20.4,16.2h0A20.9,20.9,0,0,1,456,188.7Z" fill="url(#linear-gradient-8)"></path><path id="Path_3878" data-name="Path 3878" d="M496.7,198.2l15.9-68.9a3.552,3.552,0,0,1,.2-1l-16.2,70.2v-.3Z" fill="url(#linear-gradient-9)"></path><path id="Path_3879" data-name="Path 3879" d="M430.3,201.8a19.3,19.3,0,0,0,1.1-3.4l13.5-60.1-10.1,43.8-4.5,19.7Z" fill="url(#linear-gradient-10)"></path><path id="Path_3880" data-name="Path 3880" d="M427.2,103.6h0a20.431,20.431,0,0,0-19,13.3l-10.3,44.6-4.7,20.6-4.8,20.8-3.5,15.3-.5,2.2v.4h0c-2.7,18.2,11.5,32.6,32.7,32.6h1.5L430,204h0l.2-1.1.3-1.1,4.5-19.7,10.1-43.8,2.3-10.1c2.2-12.7-7.3-24.6-20.1-24.6Z" fill="url(#linear-gradient-11)"></path><path id="Path_3881" data-name="Path 3881" d="M557,103.6h0a20.461,20.461,0,0,0-18.9,13.1l-20.2,87.5h0v.2a15.679,15.679,0,0,1-13,9.9h52.5l2.8-12.5,4.5-19.7,10.1-43.8,2.3-10.1c2.2-12.7-7.3-24.6-20.1-24.6Z" fill="url(#linear-gradient-12)"></path><path id="Path_3882" data-name="Path 3882" d="M572.9,227.7,599,119.6a20.858,20.858,0,0,1,20.3-16h0a20.868,20.868,0,0,1,20.3,25.8L613.5,237.5a20.858,20.858,0,0,1-20.3,16h0a20.868,20.868,0,0,1-20.3-25.8Z" fill="url(#linear-gradient-13)"></path><path id="Path_3883" data-name="Path 3883" d="M665.3,142.8h55.8l-3.7,15.9-16.2,70.2a20.935,20.935,0,0,0,20.6,24.6h0a20.958,20.958,0,0,0,20.4-16.2l16-68.9c.1-.4.2-.9.3-1.3h0l5.6-24.4h22.7V142l6.6-28.4h0l2.3-10H706.1c-21.2,0-42.1,14.5-47.8,32.6h0a.6.6,0,0,1-.1.4l-.5,2.2-.9,3.9h8.5Z" fill="url(#linear-gradient-3)"></path><path id="Path_3885" data-name="Path 3885" d="M717.3,159l-15.9,68.9a3.554,3.554,0,0,1-.2,1l16.2-70.2v.3Z" fill="url(#linear-gradient-15)"></path><path id="Path_3886" data-name="Path 3886" d="M783.7,155.3a19.3,19.3,0,0,0-1.1,3.4l-13.5,60.1L779.2,175Z" fill="url(#linear-gradient-16)"></path><path id="Path_3887" data-name="Path 3887" d="M786.8,253.5h0a20.431,20.431,0,0,0,19-13.3l10.3-44.6,4.7-20.6,4.8-20.8,3.5-15.3.5-2.2v-.4h0c2.7-18.2-11.5-32.6-32.7-32.6h-1.5L784,153.1h0l-.2,1.1-.3,1.1L779,175l-10.1,43.8-2.3,10.1c-2.2,12.7,7.3,24.6,20.1,24.6Z" fill="url(#linear-gradient-17)"></path><path id="Path_3888" data-name="Path 3888" d="M657,253.5h0a20.461,20.461,0,0,0,18.9-13.1l20.2-87.5h0v-.2a15.679,15.679,0,0,1,13-9.9H656.6l-2.8,12.5L649.3,175l-10.1,43.8-2.3,10.1c-2.2,12.7,7.3,24.6,20.1,24.6Z" fill="url(#linear-gradient-13)"></path><g id="Group_542" data-name="Group 542"><path id="Path_3889" data-name="Path 3889" d="M1127.8,253.5h.1c20.9,0,41.4-14.5,47-32.7h0a.6.6,0,0,1,.1-.4l.5-2.2,1.1-3.8h-90.2l-8.9,39h50.4Z" fill="url(#linear-gradient-19)"></path><path id="Path_3890" data-name="Path 3890" d="M1087.8,103.7h0a20.431,20.431,0,0,0-19,13.3l-10.3,44.6-4.7,20.6L1049,203l-3.5,15.3-.5,2.2v.4h0c-2.7,18.2,11.5,32.6,32.7,32.6h1.5l11.4-49.4h0l.2-1.1.3-1.1,4.5-19.7,10.1-43.8,2.3-10.1c2.2-12.7-7.3-24.6-20.1-24.6Z" fill="url(#linear-gradient-20)"></path><path id="Path_3891" data-name="Path 3891" d="M1197,122.3a20.593,20.593,0,0,0-20.3-18.6c-10.8,0-15.8,5.3-18.9,13.1l-20.2,87.5h0v.2c0,.2-.1.3-.2.5v.5a16.1,16.1,0,0,1-14.5,9h53.6l2.5-9,.3-1.4h0l.2-1.1.3-1.1,4.5-19.7,10.1-43.8,2.3-10.1a20.137,20.137,0,0,0,.2-6Z" fill="url(#linear-gradient-21)"></path></g><g id="Group_543" data-name="Group 543"><path id="Path_3892" data-name="Path 3892" d="M1263.8,103.7h-.1c-20.9,0-41.4,14.5-47,32.7h0a.6.6,0,0,1-.1.4l-.5,2.2-1.1,3.8h90.2l8.9-39h-50.4Z" fill="url(#linear-gradient-19)"></path><path id="Path_3893" data-name="Path 3893" d="M1303.8,253.5h0a20.431,20.431,0,0,0,19-13.3l10.3-44.6,4.7-20.6,4.8-20.8,3.5-15.3.5-2.2v-.4h0c2.7-18.2-11.5-32.6-32.7-32.6h-1.5L1301,153.1h0l-.2,1.1-.3,1.1L1296,175l-10.1,43.8-2.3,10.1c-2.2,12.7,7.3,24.6,20.1,24.6Z" fill="url(#linear-gradient-23)"></path><path id="Path_3894" data-name="Path 3894" d="M1194.6,234.9a20.593,20.593,0,0,0,20.3,18.6c10.8,0,15.8-5.3,18.9-13.1l20.2-87.5h0v-.2c0-.2.1-.3.2-.5v-.5a16.1,16.1,0,0,1,14.5-9h-53.6l-2.5,9-.3,1.4h0l-.2,1.1-.3,1.1-4.5,19.7-10.1,43.8-2.3,10.1a20.137,20.137,0,0,0-.2,6Z" fill="url(#linear-gradient-21)"></path></g><path id="Path_3895" data-name="Path 3895" d="M970.5,214.3Z" fill="#e63327"></path><circle id="Ellipse_14" data-name="Ellipse 14" cx="31.5" cy="31.5" r="31.5" transform="translate(979 132.1)" fill="url(#linear-gradient-25)"></circle><path id="Path_3896" data-name="Path 3896" d="M874.4,142.8Z" fill="#e63327"></path><path id="Path_3897" data-name="Path 3897" d="M879.1,142.8Z" fill="#e63327"></path><path id="Path_3898" data-name="Path 3898" d="M967.4,142.8h0c5.8-21.7-8.2-39.3-31.2-39.3H873.6a19.687,19.687,0,0,0-19,14.6h0a19.656,19.656,0,0,0,19,24.7Z" fill="url(#linear-gradient-26)"></path><path id="Path_3899" data-name="Path 3899" d="M970.8,214.3H906.9c-5.8,21.7,8.2,39.3,31.2,39.3h62.5a19.687,19.687,0,0,0,19-14.6h0a19.656,19.656,0,0,0-19-24.7Z" fill="url(#linear-gradient-27)"></path><path id="Path_3900" data-name="Path 3900" d="M970.8,214.3Z" fill="#e63327"></path><path id="Path_3901" data-name="Path 3901" d="M883.9,159.6h-.5c-21.5,1.1-42.8,16.8-49.2,36.5l-8.4,31-.5,2.4a20.517,20.517,0,0,0,20.1,24.1h0a20.5,20.5,0,0,0,17.7-10.2l3.3-12.1,1.9-6.8,3.2-11.8,14.4-53H884Z" fill="url(#linear-gradient-28)"></path><path id="Path_3902" data-name="Path 3902" d="M906.8,214.3Z" fill="#fff"></path><path id="Path_3903" data-name="Path 3903" d="M889.7,159.6h-3.9l-14.4,53,.6-2.3h.2A21.478,21.478,0,0,1,891,198h62.1l10.4-38.4Z" fill="url(#linear-gradient-29)"></path><path id="Path_3904" data-name="Path 3904" d="M952.4,200.6l.7-2.6H911.5l-2.3,8.1-2.3,8.2h57.2C955.5,214.3,950.2,208.2,952.4,200.6Z" fill="url(#linear-gradient-30)"></path></g></g></svg>